<svg xmlns="http://www.w3.org/2000/svg" xmlns:xlink="http://www.w3.org/1999/xlink" version="1.1" id="Layer_1" x="0px" y="0px" viewBox="0 0 100 100" style="enable-background:new 0 0 100 100;" xml:space="preserve">
<style type="text/css">
	.st0{fill:#EE3424;}
</style>
    <title>alfa</title>
    <path class="st0" d="M24.9,81.7c-0.4,0-0.8,0.4-0.8,0.8v9.2c0,0.5,0.4,0.8,0.8,0.8c0,0,0,0,0,0h50.3c0.4,0,0.8-0.4,0.8-0.8v-9.2  c0-0.4-0.4-0.8-0.8-0.8c0,0,0,0,0,0H24.9"/>
    <path class="st0" d="M50,11.6c5.5,0,7.2,4,8.7,7.9c0.6,1.7,14.9,40.8,15.3,42c0.2,0.4,0,0.9-0.5,1.1l-8.3,3.2  c-0.4,0.1-0.8-0.1-1-0.5c-0.2-0.4-3.2-9-3.6-9.9H39.5c-0.3,1-3.5,9.5-3.6,9.9c-0.1,0.4-0.6,0.6-1,0.5c0,0,0,0,0,0l-8.4-3.2  c-0.4-0.2-0.6-0.6-0.5-1c0.5-1.5,14.6-40,15.3-42C42.7,15.6,44.5,11.6,50,11.6L50,11.6z M50,24.4l-7.2,21.5h14.4L50,24.4L50,24.4z"/>
</svg>