<svg xmlns="http://www.w3.org/2000/svg" id="Layer_1" data-name="Layer 1" viewBox="0 0 86.68 77"><defs><style>.cls-1{fill:#dee0e1;}.cls-1,.cls-3,.cls-4{fill-rule:evenodd;}.cls-2{fill:#fff;}.cls-3{fill:#fce527;}.cls-4{fill:#222220;}</style></defs><title>tink</title><path class="cls-1" d="M31.14,67.83c1-.86,2-1.28,1.94-3.35-1.63.83-6.21.78-8.14-1.86-.55-.76,0-1.13.55-.54,1.32,1.49,3.75.82,4.64.38A3.53,3.53,0,0,0,29.3,61c.33-.33,1.28-.82,1.47-1.65a11.15,11.15,0,0,0-2.5-.47A1.68,1.68,0,0,0,28.74,57c-2,.61-4.46-.22-5-1s0-1.41.48-.94c1,1,5.89,2.25,7.71.43a2.67,2.67,0,0,1-1.57-1.14c1.68-.17,3-1.16,3.1-2.4a7.42,7.42,0,0,1-3.29-.52A2,2,0,0,0,31.72,50c-3.1-.19-3.33-2.47-3.34-2.86,2,1.16,5.55.65,4.63-2.2-1.67-.09-3.36-2.79,1.24-5.28,4.14-2.25,8.92-4.7,8.51-8.7-.28-2.57-4.51-4.32-5-5.62-1.76.84-2.07,1.81-1.33,3.45,0,0-3.93.39-4.24-2.07a3.71,3.71,0,0,1,1.36-2.88c-.44,0-3.4-.8-4.29,1.62-1.67-1.12-3.11-1.09-4.2.11,1.78,1,2.89,4.69,5.83,5.76-2.07,1.14-5.49.66-7.47-2.83-1.87,2.82-2.95,5.62,1,8.6-7.32,3.33-7.25,9.68-13.62,12.71.65,1.73,2,1.73,3.73,1.46-2.75,3.57-.4,7.32-4.76,8.84.41,1.46,1.23,2.62,2.84,2.2-.46.71-.76.69-1.47,1.48,2.38,1.5,5.17.41,5.85-4.4.11-.86,1.29-.32.89.51-2.71,5.61,4.14,9.84,1.72,14,2.14-.09,3.76-.25,4.66-1a4.53,4.53,0,0,1,.6,2.57,1.87,1.87,0,0,0,1.7-1.74c.78,2.26,3.54,4.67,8,4.67-2.35-3.35-.17-6.75-3.49-10.58m-4.38,4.14-1,1.61a20.94,20.94,0,0,0-1.34-2.93c-.76,1.57-2,1.6-3.11,1.6.33-3.74-4.39-7.51-2.32-11.8a1.74,1.74,0,0,0-.72-2.35h0c-3.17-1.6-1.7,5.06-4.87,5.26a8.49,8.49,0,0,0,.93-2.47c-.68.17-2.29,1.2-3-.12a5.14,5.14,0,0,0,2.67-4,16,16,0,0,1,.89-3.61,20.68,20.68,0,0,1,2.35-3.31c-.32,0-3.88.8-4.67.43,6.15-3.78,4.77-8.59,14.14-12.87-2.46-1.83-5-3.28-3.17-6.77,2.56,3.1,7.46,2.07,10.09.58-2.61-.52-6-2.82-6.77-5.38,1-.15,2.25.91,3,1.41.35-.94.49-2.07,1.63-2.28-1.52,3.28,1.49,5,4.37,5,.45,0,2.31-.18,2.31-.18-.3-.61-1.5-2.28-.62-3a28.1,28.1,0,0,0,2.3,1.77c5.59,4.32-2.65,8.33-6,10.15-5.3,2.85-3.88,6.26-1.66,7.13,0,.38-.25.56-.62.67-1.54.52-3-.59-4.23-1.29.07,2.13-.07,4.14,2.29,5.36l-1.63.6c1.4,1,1.83,1.62,3.51,1.84a7.64,7.64,0,0,1-2.59.46,6.16,6.16,0,0,0,.82,1.92c-3.44.41-4.82-1.56-5.89-1.48-2.27.17-2.13,4.45,3.47,4.45l-.58,1a6.33,6.33,0,0,0,2.07.74,10,10,0,0,0-1,1l.89.77c-2.29.41-2.93-2.07-4.41-.85-2.26,1.79,2.72,5.57,7.5,5a15.36,15.36,0,0,1-2,1.67c3.89,3.67,2,7.14,3.57,9.67A7,7,0,0,1,26.78,72" transform="translate(-6.67 -12)"/><path class="cls-1" d="M20.63,58.57c.81.84,1.79.93,3.64.81-2.07-.25-3.18-.75-3.9-2.07a21.38,21.38,0,0,1-.21-2.25,15.61,15.61,0,0,1,2.14-7.5,5.26,5.26,0,0,0,4.49,5c-2.8-1.23-4.44-4-3.54-6.64.58-.93,1.24-1.89,2-2.86.38-.48.73-.93,1-1.35-.37,1.36,1.26,2.76,2.37,3-.6-.58-1.87-2.47,1-5.63a14,14,0,0,0-2.42,1.48c5.36-5.79,9.77-6,11.8-8.88-2.94,2-10.7,3.11-14.19,2.14,1.93,1.29,6.57,1.17,7.7.94-3.79,3.68-12,7.48-13.45,10.86a9.65,9.65,0,0,1,5.06-3.19,34.23,34.23,0,0,0-3.46,5.94c-2.19,4.78-5.17,4.84-5.33,8.78,1-3.1,3.05-3.83,4.45-5.83a20.38,20.38,0,0,0-.32,4.34,13.79,13.79,0,0,0,1,4.75c-.14,1.95,0,5.27,2.27,7.47A10.12,10.12,0,0,1,21,61.64c1.75,3.38,6.73,8,9.14,11.16-2.41-4-8.28-8.73-9.58-14.16" transform="translate(-6.67 -12)"/><path class="cls-1" d="M75.78,42.36a9.68,9.68,0,0,1,5.06,3.19c-1.43-3.38-9.7-7.18-13.45-10.87,1.13.24,5.78.37,7.71-.93-3.49,1-11.26-.13-14.19-2.14,2.07,2.92,6.43,3.11,11.79,8.88A13.29,13.29,0,0,0,70.28,39c3,3.16,1.68,5,1,5.63,1.1-.24,2.74-1.64,2.37-3,.35.42.71.88,1,1.34.74,1,1.39,1.94,2,2.87.89,2.66-.76,5.41-3.54,6.63a5.23,5.23,0,0,0,4.48-5A15.49,15.49,0,0,1,79.76,55a19,19,0,0,1-.2,2.25c-.72,1.35-1.87,1.85-3.9,2.07,1.86.11,2.83,0,3.65-.81C78,64,72.14,68.66,69.72,72.68c2.42-3.1,7.39-7.78,9.14-11.15a10,10,0,0,1-1.71,6.21c2.23-2.2,2.41-5.52,2.26-7.47a13.38,13.38,0,0,0,1-4.75,19.12,19.12,0,0,0-.32-4.34c1.41,2,3.45,2.77,4.45,5.83-.18-3.95-3.1-4-5.33-8.78a33.55,33.55,0,0,0-3.45-5.94" transform="translate(-6.67 -12)"/><path class="cls-1" d="M85.34,51.33c1.73.26,3.11.26,3.74-1.46-6.37-3-6.32-9.39-13.62-12.72,4-3,2.94-5.79,1-8.6-2,3.5-5.38,4-7.47,2.83,3-1,4.06-4.71,5.84-5.76-1.06-1.2-2.51-1.27-4.16-.17-.9-2.41-3.85-1.62-4.3-1.62a3.69,3.69,0,0,1,1.37,2.88c-.31,2.42-4.23,2.07-4.23,2.07.78-1.64.44-2.61-1.33-3.45-.54,1.3-4.76,3.05-5,5.62-.42,4,4.33,6.45,8.5,8.7,4.59,2.49,2.91,5.18,1.24,5.28-.92,2.86,2.62,3.36,4.63,2.2,0,.39-.26,2.67-3.35,2.86a2.07,2.07,0,0,0,1.58,1.5,7.57,7.57,0,0,1-3.29.52c.11,1.24,1.45,2.23,3.1,2.4A2.7,2.7,0,0,1,68,55.58c1.82,1.81,6.71.62,7.71-.43.45-.47,1,.21.47.93s-3,1.57-5,1a1.7,1.7,0,0,0,.47,1.84,11.41,11.41,0,0,0-2.45.47c.18.83,1.14,1.32,1.47,1.65a3.45,3.45,0,0,0-.87,1.47c.89.44,3.33,1.11,4.63-.38.53-.59,1.11-.22.57.54-1.92,2.65-6.52,2.69-8.14,1.86,0,2.07.85,2.49,1.93,3.36-3.32,3.83-1.12,7.25-3.47,10.58,4.43,0,7.24-2.41,8-4.67A1.88,1.88,0,0,0,75,75.5a4.7,4.7,0,0,1,.6-2.57c.9.73,2.54.89,4.67,1-2.42-4.14,4.44-8.33,1.72-14-.41-.84.77-1.38.89-.52.63,4.8,3.46,5.9,5.84,4.4-.71-.79-1-.77-1.46-1.48,1.6.42,2.42-.74,2.83-2.2-4.36-1.53-2-5.26-4.76-8.83m.36,9.55a8.4,8.4,0,0,0,.91,2.48c-3.16-.21-1.69-6.87-4.86-5.27A1.74,1.74,0,0,0,81,60.44v0c2.07,4.29-2.65,8.06-2.38,11.82-1.17,0-2.38,0-3.1-1.6a21.75,21.75,0,0,0-1.35,2.94l-1-1.62a7,7,0,0,1-6.42,5.35c1.59-2.53-.33-6,3.57-9.67a15.36,15.36,0,0,1-2-1.67c4.78.57,9.76-3.22,7.49-5-1.48-1.17-2.13,1.26-4.41.85l.89-.77c-.31-.31-.67-.71-1-1a6.27,6.27,0,0,0,2.07-.74l-.58-1c5.6,0,5.73-4.28,3.46-4.45-1-.08-2.45,1.89-5.88,1.48a6.67,6.67,0,0,0,.82-1.92A7.64,7.64,0,0,1,68.59,53c1.68-.22,2.07-.78,3.5-1.84l-1.62-.6c2.36-1.18,2.21-3.23,2.28-5.36-1.24.71-2.69,1.81-4.23,1.29-.36-.12-.61-.29-.61-.67,2.22-.87,3.63-4.27-1.66-7.13-3.42-1.85-11.68-5.85-6.08-10.13a26.48,26.48,0,0,0,2.3-1.77c.88.67-.32,2.34-.62,3,0,0,1.86.18,2.3.18,2.87,0,5.9-1.71,4.37-5,1.15.23,1.29,1.33,1.63,2.27.73-.49,2-1.56,3-1.4-.8,2.55-4.14,4.85-6.77,5.37,2.64,1.44,7.52,2.5,10.09-.58,1.8,3.48-.7,4.94-3.18,6.78,9.39,4.28,8,9.08,14.16,12.86-.8.37-4.37-.37-4.68-.43a20.21,20.21,0,0,1,2.36,3.32,15.46,15.46,0,0,1,.91,3.6,5.23,5.23,0,0,0,2.67,4c-.72,1.32-2.32.29-3,.12" transform="translate(-6.67 -12)"/><path class="cls-1" d="M41,71.37l1.33-1.14-.21-.41c-.14-.29-.07-.31.09-.43l.7-.52a.56.56,0,0,1,.54-.08l2.07.5H43.36a.85.85,0,0,0-.86.61l-.16.32-.58,1.18A1.33,1.33,0,0,0,42,73l.4.48-.8,1.69h.69L42.84,74a3.72,3.72,0,0,0,1-1.61c-.23-.19-.41-.33-.28-.61l.26-.54c.09-.19.12-.26.36-.21l2.23.48a.77.77,0,0,0,1-.24c.31-.47.35-.42,1-.35L49.6,71a6,6,0,0,0,3.7-.73,14.87,14.87,0,0,0,.83,1.24c.07.13,0,.33-.15.58l-1.23,3h2l1.12-2.79a1.64,1.64,0,0,1,.37-.58l-.64,3.37h1.9L58,71.79c.11-.73,0-1-.31-1.28-.8-.67-.78-2.07-1-2.94a.8.8,0,0,1,.48-.09c.41,0,.72,1.11,1.22,1.78,1,1.38,2.31,2.89,3.84.75a5.3,5.3,0,0,0-.5-.67l-.42-.49c-.25-.28-1.43-1.63-1.93-2.07a2.87,2.87,0,0,0-3.53-.42c-1.55-.81-3.18,0-3.58,0l-2.67-.16a.54.54,0,0,1-.43-.26l.5-.17c-.47-1.93-1.64-3.56-3.68-3.83,0,0-.12-.61-.42-.73l-.61.72a2.38,2.38,0,0,0-.52.15l-2.61-1,2,2a17.37,17.37,0,0,1-1.3,1.7.54.54,0,0,0,0,.73l.39.5c.19.26.41.25.72.08l.43-.21c.18-.16.81.15,1-.1a7.34,7.34,0,0,0-.17,1.54l-1.76-.2a.92.92,0,0,0-.8.18l-1.5,1.15a1.3,1.3,0,0,0-.34,1.66Zm14.49.33-1.19,2.93h-.74l1.19-2.84c.12-.36-.11-.53-.4-.94a7.65,7.65,0,0,0,1.29.62c0,.08-.1.15-.14.23M44.05,65.35l-.34.17c-.24.14-.35.2-.56-.06L43,65.28a.39.39,0,0,1,.06-.48l1.45-1.71L43.17,62l1.72.64.63-.79c.18.15.12.61.12.61A3.48,3.48,0,0,1,48.43,66a1.67,1.67,0,0,0,1,.71l3,.18c.49,0,1.72-.94,3.3,0A3.18,3.18,0,0,1,57,66.35a3.85,3.85,0,0,1,3.18,1.84c.56.71,1.33,1.79,1.33,1.79-.33.4-.65.52-.92.43a1.37,1.37,0,0,1-.68-1,3.18,3.18,0,0,0-1-1.35,5.88,5.88,0,0,1,.45,1.55C58.18,68.42,58,67,57.14,66.83a1.2,1.2,0,0,0-1.17.51c.41,1,.39,2.07.81,2.79.32.55.38.6.53.72.34.25.14.69.09,1L57,74.64h-.74l.49-2.7c.14-.82-2.17-.82-3.35-2.39-1,1.18-3.83.88-5.05.69a1,1,0,0,0-1.24.45c-.15.28-.42.19-.59.15l-2.22-.47a.54.54,0,0,0-.71.27l0,.07-.44.92a.41.41,0,0,0,.08.55l.22.23a1.87,1.87,0,0,1-.53.77l-.49-.55a1,1,0,0,1-.06-1L43,70.1a.58.58,0,0,1,.54-.34h2.76l-.85-1.38c-.63-1,.41-2.87.26-3.74-.09,1.16-1.48.64-1.71.79m-3,3.38,1.3-1a.81.81,0,0,1,.65-.26l1.85.24a2.89,2.89,0,0,0,.39.88l-2-.42a.68.68,0,0,0-.62.17l-.93.7a.46.46,0,0,0-.08.6l.15.32-.65.49L40.9,70c-.25-.5-.27-1,.15-1.28" transform="translate(-6.67 -12)"/><path class="cls-1" d="M46.73,33.44a13.33,13.33,0,0,0,2,1v-.84l-2.79-1s0,.35.81.89" transform="translate(-6.67 -12)"/><path class="cls-1" d="M48.71,32.43v-.84l-3.16-1.13a7.12,7.12,0,0,0,1.18.95,13.33,13.33,0,0,0,2,1" transform="translate(-6.67 -12)"/><path class="cls-1" d="M48.71,30.52v-.84L45.25,28.4s.67.55,1.48,1.1a13.28,13.28,0,0,0,2,1" transform="translate(-6.67 -12)"/><path class="cls-1" d="M58.42,42H62a1.64,1.64,0,0,0-1.73-1,2,2,0,0,0-1.81,1" transform="translate(-6.67 -12)"/><path class="cls-1" d="M54.72,28.41l-3.46,1.28v.84a12.4,12.4,0,0,0,2-1c.81-.55,1.48-1.1,1.48-1.1" transform="translate(-6.67 -12)"/><path class="cls-1" d="M54.05,32.56l-2.79,1v.84a13.33,13.33,0,0,0,2-1c.81-.55.81-.89.81-.89" transform="translate(-6.67 -12)"/><path class="cls-1" d="M54.43,30.46l-3.11,1.13v.84a13.33,13.33,0,0,0,2-1,7.12,7.12,0,0,0,1.18-.95" transform="translate(-6.67 -12)"/><path class="cls-1" d="M39.73,41A1.62,1.62,0,0,0,38,42h3.53a2,2,0,0,0-1.81-1" transform="translate(-6.67 -12)"/><path class="cls-1" d="M57,26.15c0-2-3.35-3.77-7-3.77s-7,1.78-7,3.77l.08.48,1.47,8.45-6.92,4.06A4.16,4.16,0,0,0,35.75,42H37A2.83,2.83,0,0,1,40,39.55c1.61.08,2.56,1,3.51,2.46l.25.37.35.55H33.82a11,11,0,0,1,1.47,4.86V69.06c0,5.49,4.22,8.1,8.78,8.1,3.52,0,4-.16,5.94,1.78C52,77,52.42,77.16,56,77.16c4.55,0,8.77-2.61,8.77-8.1V47.75a11.08,11.08,0,0,1,1.45-4.85H55.92l.35-.55.25-.37c.94-1.4,1.89-2.37,3.51-2.46A2.84,2.84,0,0,1,63,42h1.27a4.18,4.18,0,0,0-1.8-2.87l-7-4,1.47-8.45Zm-12.63,1,5.17,1.77V37l-3.82-2Zm1.27,17.26a5.14,5.14,0,0,0,3.11,1.91,2.61,2.61,0,0,0,.9,1.46,2.61,2.61,0,0,0,1.93,3.16h0A2.06,2.06,0,0,0,53,52.48l-1.09,1.26a1.57,1.57,0,0,1-1.4.58l-4.86-.55c.21-.54-.35-1.17-1.88-.9l1.9-5.33-1.16-2.49-2.21,1.89-.16,5.6-.94-.47c-1.23-.53-1.59,1.7-.42,1.71h.47a.52.52,0,0,0,.21.56.39.39,0,0,0,0,.65.46.46,0,0,0-.18.62.31.31,0,0,0,.09.11,1,1,0,0,0,.34,1.43.94.94,0,0,0,.23.1c.69.19,1.13-.56,1.27-1l7.56,2.34a2.57,2.57,0,0,0,2.72-.64l2-1.73a2.07,2.07,0,0,0,1,2.48,10.35,10.35,0,0,0-.08,1.47H36.76V47.72A9.85,9.85,0,0,0,36,44.34Zm8.13,4.72a2.56,2.56,0,0,0,.11,2.54l-.32.32c-1.42-.18-2-2.29-2-2.29a5.23,5.23,0,0,0,0,.56,2,2,0,0,1-1.3-2.07,3.16,3.16,0,0,0,1,.36l.1-.62a2.15,2.15,0,0,1-1.79-1.52H50a6.13,6.13,0,0,0,1.64-.23,2.69,2.69,0,0,0,1.87,1.09,2.93,2.93,0,0,0,.25,1.84m2.07,5.59a1.9,1.9,0,0,0-.33.65l-.79.72a3.77,3.77,0,0,0-1.33-3.1l.84-.83.17.17a1.94,1.94,0,0,0,1.42,2.35h0m-3.78-.32.65-.64A3.53,3.53,0,0,1,54,56.79l-.7.65a2.07,2.07,0,0,1-.44.34,3.88,3.88,0,0,0-.76-3.45m-1.4.53h0a1.27,1.27,0,0,0,.72-.1,3.58,3.58,0,0,1,.29,3.33,3.63,3.63,0,0,1-1-.14l-.24-.07a4.36,4.36,0,0,0,.19-3M49,54.66l.92.11a4.54,4.54,0,0,1-.44,2.83l-1-.31a4.44,4.44,0,0,0,.59-2.64m-2-.22,1.11.13a4.44,4.44,0,0,1-.52,2.53l-1.13-.33a3.63,3.63,0,0,0,.54-2.33m-4.5-.3a.5.5,0,0,1-.72-.53,1.76,1.76,0,0,1,1.76.06c.26.18.49.67.86,1A7.62,7.62,0,0,1,44.17,56a1,1,0,0,1-1-1.08,1,1,0,0,1,.28-.65.68.68,0,0,0-.87-.19m-.72,2.07a2.38,2.38,0,0,0,.7.16.4.4,0,0,1-.44.37h0a.38.38,0,0,1-.24-.49.08.08,0,0,1,0,0m-1-3a.3.3,0,0,1-.13-.39.29.29,0,0,1,.28-.16c.31,0,.72.36,1.13.54a3.93,3.93,0,0,1-1.28,0m1,2.16c.21.22.89.14.89.14v.13c-.29.39-1.11.22-.93-.27m.91-.44c-.49.19-1-.08-.82-.39.21.21.85.11.85.11Zm.7-5.59-.92,3.35.31-5.41,1.43-1.22L45,47.65l-1.83,5.26.49-3.54c0-.25-.16-.28-.2,0m.14,4a6.5,6.5,0,0,1,1.32.07c.22.09.07.44-.21.41a6,6,0,0,1-1.11-.48m1.61.82,1.12.14a3.69,3.69,0,0,1-.46,2.15l-1-.31a7,7,0,0,0,.43-2.07M63.28,69a6.14,6.14,0,0,1-3.19,5.65l.71-1.45h-.69l-.91,1.87a8.84,8.84,0,0,1-3.22.55c-3.63,0-4.59.15-5.94,1.49-1.35-1.33-2.31-1.49-5.94-1.49a9.25,9.25,0,0,1-3.21-.54h0l.91-1.87h-.7l-.81,1.64-.56-.29.67-1.34h-.69l-.49,1a6.22,6.22,0,0,1-2.48-5.18V60.92H63.21ZM64,44.32a9.59,9.59,0,0,0-.74,3.38V60.12H61.82a8.25,8.25,0,0,1-1.21-2.75A3.45,3.45,0,0,0,61,60.12H59.18a11.21,11.21,0,0,1-.86-2.82c-.56.63-.21,2.35.14,2.82H57.23a6.33,6.33,0,0,1,.18-1.84c-.64-.12-1.34-.47-1.34-1.18a1,1,0,0,0,.92.3l.52-.41c-1.75,0-1.82-1.86-.44-2.76-1.38,0-2.41-.77-1.91-2.24a2.07,2.07,0,0,1-.62-2.86l0,0a2.48,2.48,0,0,1-.28-2.45,2.76,2.76,0,0,1-1.91-.76h-.11a4.9,4.9,0,0,0,2.07-1.59Zm-5.27-6c-1.43.25-2.67,2-3.68,3.59l-.11.18h-1v.19c-.11,1.22-1.27,2.88-3.83,2.88a4.19,4.19,0,0,1-2.68-.86,3.11,3.11,0,0,1-1-1.47,2.57,2.57,0,0,1-.12-.55v-.19h-1L45,42c-1-1.58-2.25-3.33-3.67-3.59l3.9-2.27L50,38.74l4.79-2.61Zm-4.48-3.4-3.83,2V28.89l5.18-1.77ZM50,28l-5.69-2.24c.47-1.13,2.71-2.07,5.68-2.07s5.17,1,5.68,2.07Z" transform="translate(-6.67 -12)"/><path class="cls-1" d="M62.61,52.36v-.62c-1.9,0-2.34-2.3-2.34-2.3a2.3,2.3,0,0,0,1.58,2.84,2.19,2.19,0,0,0,.76.08" transform="translate(-6.67 -12)"/><path class="cls-1" d="M60.2,56.23,60,55.64c-1.63.41-2.47-2.16-2.47-2.16a2.19,2.19,0,0,0,2.66,2.75" transform="translate(-6.67 -12)"/><path class="cls-1" d="M61.38,53.83c-1.94.31-2.74-2-2.74-2a2.21,2.21,0,0,0,1.73,2.6l.14,0a1.71,1.71,0,0,0,1.29,2A1.67,1.67,0,0,0,63,56.35l-.19-.55a1.27,1.27,0,0,1-1.44-2" transform="translate(-6.67 -12)"/><path class="cls-1" d="M60.17,47.36v-.62c-2.56-.53-2.35-2.3-2.35-2.3a2.31,2.31,0,0,0,1.59,2.84,2.11,2.11,0,0,0,.75.08" transform="translate(-6.67 -12)"/><polygon class="cls-1" points="37.21 61.26 36.29 63.13 36.99 63.13 37.91 61.26 37.21 61.26"/><polygon class="cls-1" points="38.6 61.26 37.68 63.13 38.38 63.13 39.29 61.26 38.6 61.26"/><polygon class="cls-1" points="44.17 61.26 43.25 63.13 43.94 63.13 44.86 61.26 44.17 61.26"/><polygon class="cls-1" points="45.56 61.26 44.64 63.13 45.34 63.13 46.25 61.26 45.56 61.26"/><polygon class="cls-1" points="42.78 61.26 41.86 63.13 42.55 63.13 43.48 61.26 42.78 61.26"/><polygon class="cls-1" points="50.91 63.13 51.6 63.13 52.52 61.26 51.83 61.26 50.91 63.13"/><polygon class="cls-1" points="40 61.26 39.08 63.13 39.77 63.13 40.69 61.26 40 61.26"/><polygon class="cls-1" points="41.38 61.26 40.46 63.13 41.17 63.13 42.08 61.26 41.38 61.26"/><path class="cls-1" d="M44.91,63.23a.29.29,0,0,0-.34.23.29.29,0,0,0,.23.34.3.3,0,0,0,.34-.24s0,0,0,0a.27.27,0,0,0-.24-.29" transform="translate(-6.67 -12)"/><path class="cls-1" d="M50,21.12a10.47,10.47,0,0,1,6.4,2,12.83,12.83,0,0,1,1.65-4.25l-2.3.26-1.2-2.56-2.3,1.2L50,15.51l-2.24,2.22-2.32-1.2-1.21,2.56-2.29-.26a12.83,12.83,0,0,1,1.65,4.25,10.46,10.46,0,0,1,6.41-2m-5.36-1,1.1-2.32,2.07,1L50,16.65l2.25,2.21,2.07-1,1,2.31,1.35-.2a9.86,9.86,0,0,0-.85,2,12,12,0,0,0-11.72,0,9.86,9.86,0,0,0-.85-2Z" transform="translate(-6.67 -12)"/><path class="cls-1" d="M52.34,16.54A.61.61,0,0,0,53,16h0a3.82,3.82,0,0,0-.45-1.22s-.74.79-.76,1.12a.61.61,0,0,0,.55.65" transform="translate(-6.67 -12)"/><path class="cls-1" d="M56.1,17.91a.6.6,0,0,0,.81-.26A3.72,3.72,0,0,0,57,16.36s-1,.43-1.12.73a.61.61,0,0,0,.26.82" transform="translate(-6.67 -12)"/><path class="cls-1" d="M47.64,16.54a.61.61,0,0,0,.56-.65c0-.34-.76-1.12-.76-1.12A3.82,3.82,0,0,0,47,16a.6.6,0,0,0,.65.56" transform="translate(-6.67 -12)"/><path class="cls-1" d="M43.87,17.91a.61.61,0,0,0,.25-.82c-.15-.3-1.13-.73-1.13-.73a3.73,3.73,0,0,0,.07,1.29.59.59,0,0,0,.8.26h0" transform="translate(-6.67 -12)"/><path class="cls-1" d="M89,38.61a3.26,3.26,0,0,0,1.72-1.76c-2.07-.3-7.46-2.57-11.92-.72,1.67-1.58,3.17-1.79,3.31-4.06A1.62,1.62,0,0,0,84.44,32a1.72,1.72,0,0,0,.24-.34c-.46-1.35-1.63-.26-1.78-.63s1.46.17,1.83-1.6c-1.31-.46-1.71.62-2,.37s.84-.69.07-2.07c-1.37.8-.66,1.71-.95,1.8s-.07-1-1.59-.91c-.14,1.62,1.43,1.68,1.16,1.93s-.71-.93-1.86-.3a1.69,1.69,0,0,0,1.56,1.81,1.63,1.63,0,0,0,.62-.08c-.17,2.5-2.46,2.07-4.14,4.85,3.61,1.85,5.24,5.08,7.46,7.3a12.68,12.68,0,0,0,2-2.83,2.92,2.92,0,0,0,4.13,0h0c-.83-.85-.86-1.49-2.12-2.65m-3.5.45A4.08,4.08,0,0,1,85.19,43a16.53,16.53,0,0,0-4.67-6c-.33-.2.17-.59,1.1-.7,2.78-.53,6,.65,7.58,1a4,4,0,0,1-2.07.87,12.33,12.33,0,0,1,2.53,2.62c-1.1.27-1.71-.41-4.06-1.83" transform="translate(-6.67 -12)"/><path class="cls-1" d="M62.36,80.66v-3a28,28,0,0,1-9.26,2.31L52.93,81c.33,0,.74.08,1.29.12a31.53,31.53,0,0,1-8.57,0A8,8,0,0,0,47,81l-.18-1.09a27.87,27.87,0,0,1-9.19-2.31v3L34.48,82a38.6,38.6,0,0,0,8.28,3l-.38,1.27a28.37,28.37,0,0,0,15.4,0L57.41,85a38.79,38.79,0,0,0,8.28-3ZM36.13,82.05l2.15-.87V78.7a36.48,36.48,0,0,0,5.81,1.6l-1.22,4A36.32,36.32,0,0,1,36.13,82M50,86.64a29.73,29.73,0,0,1-6.84-.86l1.29-4.14a33.83,33.83,0,0,0,11.09,0l1.29,4.14a29.73,29.73,0,0,1-6.84.86m7.12-2.33-1.23-4a36.43,36.43,0,0,0,5.8-1.62v2.48l2.16.87a35.84,35.84,0,0,1-6.74,2.26" transform="translate(-6.67 -12)"/><path class="cls-1" d="M12.91,41.25a12.68,12.68,0,0,0,2,2.83c2.22-2.22,3.86-5.45,7.46-7.31-1.71-2.8-4-2.33-4.14-4.84a1.7,1.7,0,0,0,2.11-1.15,1.88,1.88,0,0,0,.06-.58c-1.15-.63-1.55.62-1.86.3s1.31-.31,1.16-1.93c-1.51,0-1.23,1-1.6.91s.43-1-.94-1.8c-.77,1.43.28,1.87.06,2.07s-.63-.83-1.94-.37c.35,1.75,2.07,1,1.82,1.6s-1.32-.72-1.78.63a1.6,1.6,0,0,0,2.17.66,1.4,1.4,0,0,0,.35-.25c.14,2.29,1.64,2.48,3.31,4.07-4.46-1.85-9.89.43-11.92.72a3.22,3.22,0,0,0,1.72,1.74c-1.26,1.17-1.29,1.82-2.07,2.65,0,0,1.69,1.86,4.14,0m-2.52-.35A12.38,12.38,0,0,1,13,38.22,4,4,0,0,1,11,37.34c1.56-.41,4.82-1.58,7.59-1,.91.12,1.43.5,1.1.7A16.39,16.39,0,0,0,15,43,4.09,4.09,0,0,1,14.52,39c-2.34,1.42-3,2.07-4,1.83" transform="translate(-6.67 -12)"/><path class="cls-1" d="M48,39.55v1.34a1.7,1.7,0,0,1,1.36-.44v1.93A3,3,0,0,1,49,43.75H51a3,3,0,0,1-.37-1.37V40.44a1.7,1.7,0,0,1,1.36.44V39.54H48Z" transform="translate(-6.67 -12)"/><path class="cls-2" d="M92.32,40.12a4.26,4.26,0,0,1-.57-.77l-.33-.5a5.4,5.4,0,0,0,.83-1.33l.87-2L91,35.24a16.13,16.13,0,0,1-1.61-.38,31.65,31.65,0,0,0-4.8-1,3.29,3.29,0,0,0,1.52-1.43l.35-.63S86.37,31,86,30.67a3.66,3.66,0,0,0,.3-.9l.29-1.41-1.35-.46a3.64,3.64,0,0,0-.63-.16,4.22,4.22,0,0,0-.35-.82l-.82-1.47L82,26.3a3.79,3.79,0,0,0-.91.73,3.26,3.26,0,0,0-.7-.07,4.37,4.37,0,0,0-1.75.24L77.48,26l-1.39-1.48a4.3,4.3,0,0,0-4.87-1.13,4.61,4.61,0,0,0-3.41-1.25,12.26,12.26,0,0,0-1.35.1,8.18,8.18,0,0,0-3.56,1.64l-1.55-.75a5.52,5.52,0,0,1-2.82,2.17A4.12,4.12,0,0,0,57.9,24l.1-.58a10.88,10.88,0,0,1,1.42-3.64l1.85-2.89-2.63.33a7.22,7.22,0,0,0,0-.93L58.4,14l-2.07.93-.6.3-.4-.87-.94.49a5.91,5.91,0,0,0-.39-.8L52.89,12l-1.55,1.67-.41.47L50,13.21l-.94.94a5.5,5.5,0,0,0-.41-.47L47.09,12,46,14a8.17,8.17,0,0,0-.38.79l-.94-.48-.41.87-.6-.3L41.59,14l-.23,2.25a7.21,7.21,0,0,0,0,.93l-2.64-.3,1.86,2.89A11,11,0,0,1,42,23.38l.09.58a4,4,0,0,0-.63,1.35,7.94,7.94,0,0,1-2.82-2.19l-1.6.76a8.06,8.06,0,0,0-4.89-1.76,4.44,4.44,0,0,0-3.39,1.26A4.27,4.27,0,0,0,23.9,24.5,19.52,19.52,0,0,1,22.51,26a7.44,7.44,0,0,1-1.33,1,5.52,5.52,0,0,0-2.29,0,3.86,3.86,0,0,0-1-.73l-1.41-.83-.81,1.49a4.79,4.79,0,0,0-.34.81,3.64,3.64,0,0,0-.63.16l-1.34.46.28,1.4a3.74,3.74,0,0,0,.3.91,2.58,2.58,0,0,0-.21.48l-.23.68.35.63a3.31,3.31,0,0,0,1.52,1.44,31.65,31.65,0,0,0-4.8,1A16.13,16.13,0,0,1,9,35.26l-2.13.31.48,1.1.4.87a5.55,5.55,0,0,0,.86,1.37,13.23,13.23,0,0,1-.9,1.26l-1,1.1,1,1.13a4.4,4.4,0,0,0,4.7,1.09,7.76,7.76,0,0,0,1.64,2,11,11,0,0,1-3.76,3l-1.35.64.58,1.54A3.76,3.76,0,0,0,12,53a16.83,16.83,0,0,0-.65,2.51c-.31,1.84-.44,2.59-2.07,3.11l-1.45.51.41,1.47a5.36,5.36,0,0,0,1.36,2.56l-1,1a10.64,10.64,0,0,0,4.51,1.91,3.63,3.63,0,0,0,2.79-1,20.62,20.62,0,0,0,1.38,3.41c1,2.13,1.55,3.39.87,4.54l-1.52,2.58,3-.12a19.38,19.38,0,0,0,3.64-.38.43.43,0,0,1,0,.16l-.26,2.24L25.72,77a4.41,4.41,0,0,0,.78-.32A10.47,10.47,0,0,0,34.63,80h.22l-4.3,1.76,3.11,1.63a38.34,38.34,0,0,0,6.94,2.73l-.36,1.25,1.57.46a30,30,0,0,0,16.32,0l1.57-.46-.39-1.25a38.61,38.61,0,0,0,7-2.75l3.1-1.63L65.11,80h.22a10.46,10.46,0,0,0,8.12-3.39,4.41,4.41,0,0,0,.78.32l2.62.56-.23-2.23v-.16a18.6,18.6,0,0,0,3.58.39l3,.12-1.51-2.57c-.69-1.15-.14-2.41.87-4.54a21.49,21.49,0,0,0,1.37-3.41,4.59,4.59,0,0,0,1.82.84,3.84,3.84,0,0,0,1,.15,4.4,4.4,0,0,0,2.9-.91l1.66-1-1-1a5.43,5.43,0,0,0,1.37-2.48l.42-1.48-1.45-.51c-1.62-.57-1.74-1.32-2.07-3.1A15.71,15.71,0,0,0,88,53a3.76,3.76,0,0,0,2.53-2.35l.58-1.54-1.35-.64a11,11,0,0,1-3.76-3,7.63,7.63,0,0,0,1.65-2,4.39,4.39,0,0,0,1.52.27h0a4.52,4.52,0,0,0,3.17-1.35l1-1.14Z" transform="translate(-6.67 -12)"/><path class="cls-3" d="M36.75,60.19V47.78A9.8,9.8,0,0,0,36,44.4h9.63a5.63,5.63,0,0,0,7.93.72,4.9,4.9,0,0,0,.72-.72H64a9.59,9.59,0,0,0-.74,3.38V60.19ZM50,77.2c-1.35-1.35-2.31-1.49-5.94-1.49-4.34,0-7.24-2.55-7.24-6.62V60.92H63.28v8.14c0,4.07-2.94,6.62-7.25,6.62-3.63,0-4.59.14-5.94,1.49" transform="translate(-6.67 -12)"/><path class="cls-2" d="M38.28,78.71v2.48l-2.15.87a35.6,35.6,0,0,0,6.74,2.26l1.22-4a36.54,36.54,0,0,1-5.81-1.62" transform="translate(-6.67 -12)"/><path class="cls-2" d="M50,82.06a29.5,29.5,0,0,1-5.55-.46l-1.29,4.13a27.51,27.51,0,0,0,13.67,0L55.54,81.6a29.39,29.39,0,0,1-5.54.46" transform="translate(-6.67 -12)"/><path class="cls-2" d="M61.68,78.71a36.33,36.33,0,0,1-5.8,1.59l1.22,4A35.51,35.51,0,0,0,63.83,82l-2.16-.87Z" transform="translate(-6.67 -12)"/><path class="cls-2" d="M33.78,38.69c3.38-1.85,11.61-5.83,6-10.13C39,28,38.2,27.44,37.5,26.79c-.87.67.33,2.34.63,2.95,0,0-1.86.18-2.31.18-2.88,0-5.89-1.71-4.35-5-1.15.23-1.29,1.33-1.64,2.27-.73-.49-2-1.56-3-1.4.8,2.55,4.14,4.85,6.77,5.37-2.64,1.44-7.53,2.5-10.09-.59-1.8,3.48.71,4.94,3.16,6.78-9.37,4.27-8,9.07-14.14,12.86.79.37,4.35-.37,4.67-.43a21.08,21.08,0,0,0-2.4,3.3,15.84,15.84,0,0,0-.91,3.6,5.14,5.14,0,0,1-2.67,4c.73,1.32,2.33.29,3,.12a8.15,8.15,0,0,1-.92,2.48c3.16-.21,1.7-6.87,4.87-5.27A1.75,1.75,0,0,1,19,60.42h0c-2.07,4.29,2.64,8.06,2.39,11.82,1.16,0,2.36,0,3.11-1.6a20.54,20.54,0,0,1,1.34,2.94L26.74,72a7,7,0,0,0,6.42,5.34c-1.6-2.53.32-6-3.57-9.66a15.28,15.28,0,0,0,2-1.66c-4.77.56-9.76-3.22-7.49-5,1.48-1.17,2.12,1.26,4.41.85l-.89-.77c.31-.31.67-.71,1-1a6.11,6.11,0,0,1-2.07-.74l.58-.95c-5.59,0-5.73-4.28-3.47-4.45,1-.08,2.45,1.89,5.89,1.48a6.43,6.43,0,0,1-.83-1.92,7.66,7.66,0,0,0,2.6-.46c-1.67-.22-2.07-.77-3.51-1.84l1.63-.6c-2.25-1.17-2.13-3.23-2.25-5.36,1.23.71,2.68,1.81,4.24,1.29.37-.12.6-.29.61-.67-2.22-.87-3.63-4.27,1.66-7.13m-4,.33c-2.95,3.16-1.68,5-1,5.63-1.1-.24-2.74-1.63-2.37-3-.35.42-.7.87-1,1.34-.74,1-1.39,1.94-2,2.87-.89,2.66.75,5.41,3.54,6.63a5.23,5.23,0,0,1-4.49-5A15.37,15.37,0,0,0,20.23,55a19,19,0,0,0,.2,2.25c.72,1.35,1.87,1.85,3.9,2.07-1.85.11-2.83,0-3.64-.82C22,64,27.85,68.66,30.26,72.68c-2.4-3.1-7.38-7.78-9.13-11.15a10.07,10.07,0,0,0,1.7,6.21c-2.23-2.2-2.4-5.52-2.25-7.46a13.34,13.34,0,0,1-1-4.75,19.12,19.12,0,0,1,.32-4.34c-1.41,2-3.45,2.77-4.45,5.83.19-3.94,3.1-4,5.33-8.78a33.55,33.55,0,0,1,3.45-5.94,9.68,9.68,0,0,0-5.05,3.18c1.43-3.39,9.69-7.18,13.46-10.86-1.14.24-5.78.36-7.7-.93,3.48.94,11.26-.13,14.18-2.14-2.07,2.91-6.42,3.1-11.79,8.87a13.37,13.37,0,0,1,2.43-1.48" transform="translate(-6.67 -12)"/><path class="cls-2" d="M86,56.71a15.34,15.34,0,0,0-.91-3.6,19.39,19.39,0,0,0-2.36-3.32c.32,0,3.88.8,4.68.43-6.16-3.78-4.77-8.58-14.15-12.87,2.47-1.83,5-3.29,3.18-6.77-2.57,3.1-7.46,2.07-10.09.59,2.61-.52,6-2.83,6.77-5.38-1-.15-2.26.92-3,1.41-.35-.94-.49-2.07-1.63-2.27,1.54,3.27-1.49,5-4.36,5-.45,0-2.3-.18-2.3-.18.3-.61,1.5-2.28.62-2.95a26.48,26.48,0,0,1-2.3,1.77c-5.59,4.32,2.66,8.33,6,10.15,5.28,2.86,3.88,6.21,1.66,7.13,0,.38.25.55.61.67,1.54.52,3-.59,4.23-1.29-.08,2.13.07,4.14-2.28,5.36l1.62.6c-1.39,1-1.82,1.62-3.49,1.84a7.64,7.64,0,0,0,2.59.46,6.43,6.43,0,0,1-.83,1.92c3.45.42,4.84-1.55,5.89-1.48,2.27.17,2.14,4.45-3.46,4.45l.58.95a6.27,6.27,0,0,1-2.07.74,10,10,0,0,1,1,1l-.89.77c2.28.41,2.93-2.07,4.41-.85,2.26,1.79-2.72,5.57-7.49,5a15.87,15.87,0,0,0,2,1.66c-3.89,3.67-2,7.14-3.57,9.67A7.05,7.05,0,0,0,73.19,72l.94,1.61a21.75,21.75,0,0,1,1.35-2.94c.75,1.57,2,1.6,3.1,1.6C78.32,68.49,83,64.72,81,60.43a1.76,1.76,0,0,1,.75-2.36h0c3.16-1.6,1.7,5.06,4.86,5.27a8.15,8.15,0,0,1-.92-2.48c.67.17,2.28,1.2,3-.12a5.23,5.23,0,0,1-2.67-4m-5.92-5.45a19.16,19.16,0,0,1,.32,4.34,13.34,13.34,0,0,1-1,4.75c.15,1.94,0,5.27-2.26,7.46a10,10,0,0,0,1.71-6.21c-1.75,3.38-6.72,8-9.14,11.16C72.14,68.73,78,64,79.3,58.6c-.82.85-1.79.93-3.65.82,2.07-.25,3.18-.75,3.9-2.07a19,19,0,0,0,.2-2.25,15.49,15.49,0,0,0-2.13-7.5,5.24,5.24,0,0,1-4.49,5c2.78-1.22,4.43-4,3.54-6.64-.58-.93-1.23-1.88-2-2.86-.36-.47-.72-.92-1-1.35.37,1.36-1.27,2.75-2.37,3,.6-.58,1.87-2.47-1-5.63a14,14,0,0,1,2.43,1.48c-5.36-5.79-9.76-6-11.79-8.87,2.94,2,10.7,3.11,14.18,2.15-1.92,1.28-6.57,1.17-7.69.93,3.77,3.67,12,7.48,13.45,10.85a9.69,9.69,0,0,0-5-3.17,33.5,33.5,0,0,1,3.46,5.94c2.2,4.77,5.17,4.83,5.34,8.77-1-3.1-3-3.83-4.45-5.82" transform="translate(-6.67 -12)"/><path class="cls-2" d="M54.32,44.39A5.32,5.32,0,0,1,50,46.46a6.33,6.33,0,0,1-1.23-.12,2.56,2.56,0,0,0,.9,1.46A2.6,2.6,0,0,0,51.59,51h0A2.09,2.09,0,0,0,53,52.53l-1,1.25a1.65,1.65,0,0,1-1.41.58l-4.85-.55c.2-.54-.36-1.16-1.89-.89l1.91-5.34-1.21-2.46L42.33,47l-.16,5.6-1-.47c-1.22-.53-1.58,1.7-.41,1.71h.47a.51.51,0,0,0,.22.57.37.37,0,0,0-.14.51.32.32,0,0,0,.14.14.47.47,0,0,0-.17.64l.08.1a1,1,0,0,0,.34,1.42,1,1,0,0,0,.23.11c.7.18,1.14-.57,1.28-1l7.56,2.34A2.57,2.57,0,0,0,53.53,58l2-1.73a2.08,2.08,0,0,0,1,2.49,7.84,7.84,0,0,0-.08,1.45h6.8V47.79A9.41,9.41,0,0,1,64,44.4H54.32Z" transform="translate(-6.67 -12)"/><path class="cls-2" d="M43,65.3l.15.18c.21.25.32.2.56.06l.34-.18c.22-.17,1.62.37,1.7-.8.15.87-.88,2.71-.26,3.74l.84,1.38H43.57A.6.6,0,0,0,43,70l-.72,1.49a1,1,0,0,0,.06,1l.49.55a1.87,1.87,0,0,0,.53-.79l-.22-.21a.42.42,0,0,1-.08-.55l.44-.92a.54.54,0,0,1,.66-.38l.08,0,2.22.48c.17,0,.43.12.59-.16a1,1,0,0,1,1.24-.44c1.22.19,4,.48,5-.7C54.55,71,56.86,71,56.72,71.85l-.51,2.78h.73l.45-2.75c0-.32.25-.77-.1-1-.15-.11-.21-.16-.53-.72-.43-.74-.4-1.83-.81-2.79a1.2,1.2,0,0,1,1.16-.52c.82.19,1,1.6,2.19,2.75A5.9,5.9,0,0,0,58.84,68a3.23,3.23,0,0,1,1,1.34,1.39,1.39,0,0,0,.68,1c.26.1.6,0,.92-.43l-1.33-1.79A3.82,3.82,0,0,0,57,66.33a3.17,3.17,0,0,0-1.26.48c-1.58-.89-2.81,0-3.3,0l-3-.18a1.67,1.67,0,0,1-1-.71,3.49,3.49,0,0,0-2.79-3.51s.06-.46-.11-.61l-.62.77-1.72-.63,1.34,1.11-1.45,1.73a.38.38,0,0,0-.06.47" transform="translate(-6.67 -12)"/><path class="cls-2" d="M41.06,68.81c-.42.33-.39.77-.15,1.28l.25.46.65-.49-.14-.32a.46.46,0,0,1,.08-.6l.93-.71a.65.65,0,0,1,.62-.16l2,.41a2.84,2.84,0,0,1-.39-.87L43,67.57a.84.84,0,0,0-.65.25Z" transform="translate(-6.67 -12)"/><path class="cls-2" d="M53.59,74.63h.74l1.19-2.93c0-.08.09-.15.14-.23a7.65,7.65,0,0,1-1.29-.62c.3.41.52.57.4.94Z" transform="translate(-6.67 -12)"/><path class="cls-2" d="M54.21,35l1.37-7.89L50.4,28.91V37Zm-3-5.32,3.46-1.28s-.67.55-1.47,1.1a13.33,13.33,0,0,1-2,1Zm0,1.9,3.11-1.13a7.56,7.56,0,0,1-1.18.95,13.33,13.33,0,0,1-2,1Zm0,2.07,2.78-1s0,.34-.8.88a14.29,14.29,0,0,1-2,1Z" transform="translate(-6.67 -12)"/><path class="cls-2" d="M45,42l.11.19h1v.18a2.55,2.55,0,0,0,.11.55,3.21,3.21,0,0,0,1,1.47,4.1,4.1,0,0,0,2.68.86c2.55,0,3.71-1.65,3.83-2.88V42.2h1l.12-.19c1-1.58,2.24-3.33,3.67-3.59l-3.91-2.27L50,38.75l-4.79-2.61-3.9,2.27c1.42.25,2.66,2,3.67,3.59" transform="translate(-6.67 -12)"/><path class="cls-2" d="M49.59,37V28.9l-5.18-1.77L45.78,35Zm-.87-2.55a13.33,13.33,0,0,1-2-1c-.81-.55-.81-.89-.81-.89l2.79,1Zm0-4.78v.83a13.28,13.28,0,0,1-2-1c-.81-.55-1.48-1.1-1.48-1.1Zm0,1.9v.84a13.33,13.33,0,0,1-2-1,7.12,7.12,0,0,1-1.18-.95Z" transform="translate(-6.67 -12)"/><path class="cls-2" d="M50,23.65c-3,0-5.17,1-5.68,2.07L50,28l5.67-2.25c-.49-1.13-2.7-2.07-5.67-2.07" transform="translate(-6.67 -12)"/><path class="cls-2" d="M50,20.4a12.27,12.27,0,0,1,5.86,1.52,9.78,9.78,0,0,1,.85-2l-1.35.2-1-2.31-2.07,1L50,16.67l-2.24,2.21-2.07-1-1.06,2.27-1.35-.2a9.78,9.78,0,0,1,.85,2A12.31,12.31,0,0,1,50,20.4" transform="translate(-6.67 -12)"/><path class="cls-2" d="M87.05,38.28a4.13,4.13,0,0,0,2.07-.88c-1.55-.42-4.8-1.59-7.58-1-.92.13-1.43.5-1.09.7a16.46,16.46,0,0,1,4.63,6,4.09,4.09,0,0,0,.44-3.94c2.35,1.42,3,2.07,4,1.84A11.87,11.87,0,0,0,87,38.32" transform="translate(-6.67 -12)"/><path class="cls-2" d="M14.89,43.05a16.3,16.3,0,0,1,4.67-6c.34-.21-.18-.58-1.09-.71-2.78-.53-6,.65-7.59,1A4.13,4.13,0,0,0,13,38.3a12,12,0,0,0-2.52,2.62c1.09.27,1.7-.41,4-1.83A4.14,4.14,0,0,0,14.91,43" transform="translate(-6.67 -12)"/><path class="cls-4" d="M31.14,67.88c1-.86,2-1.28,1.94-3.35-1.63.83-6.21.79-8.14-1.86-.55-.76,0-1.13.55-.54,1.32,1.49,3.76.82,4.64.38A3.57,3.57,0,0,0,29.3,61c.33-.33,1.28-.82,1.47-1.65a11.15,11.15,0,0,0-2.5-.47A1.68,1.68,0,0,0,28.73,57c-2,.61-4.45-.22-5-.95s0-1.41.48-.93c1,1,5.89,2.24,7.71.43a2.68,2.68,0,0,1-1.56-1.16c1.68-.17,3-1.16,3.1-2.4a7.57,7.57,0,0,1-3.29-.52A2,2,0,0,0,31.72,50c-3.1-.19-3.32-2.47-3.34-2.86,2,1.16,5.55.65,4.63-2.2-1.67-.09-3.36-2.79,1.24-5.27,4.14-2.25,8.92-4.7,8.5-8.7-.27-2.57-4.51-4.32-5-5.62-1.76.84-2.07,1.81-1.33,3.45,0,0-3.93.39-4.24-2.07a3.71,3.71,0,0,1,1.36-2.88c-.44,0-3.4-.8-4.29,1.61-1.66-1.12-3.11-1.08-4.19.11,1.78,1,2.89,4.69,5.83,5.76-2.06,1.14-5.48.66-7.47-2.83-1.87,2.82-2.95,5.62,1,8.6-7.32,3.33-7.25,9.68-13.62,12.71.64,1.73,2,1.73,3.73,1.46-2.75,3.57-.4,7.32-4.76,8.84.42,1.46,1.24,2.62,2.84,2.2-.46.71-.76.69-1.47,1.48,2.38,1.5,5.17.41,5.84-4.4.11-.86,1.29-.32.89.51C15.17,65.52,22,69.75,19.6,73.85c2.14-.09,3.76-.25,4.65-1a4.52,4.52,0,0,1,.6,2.56,1.87,1.87,0,0,0,1.7-1.74c.78,2.26,3.54,4.68,8,4.68-2.25-3.31,0-6.72-3.38-10.5M26.77,72l-.94,1.61a21.75,21.75,0,0,0-1.35-2.94c-.76,1.57-2,1.6-3.1,1.6.23-3.8-4.5-7.57-2.43-11.86a1.75,1.75,0,0,0-.74-2.36h0c-3.17-1.6-1.7,5.06-4.87,5.27a8.45,8.45,0,0,0,.93-2.48c-.68.17-2.28,1.2-3-.12a5.14,5.14,0,0,0,2.67-4,15.92,15.92,0,0,1,.88-3.6,20.76,20.76,0,0,1,2.35-3.32c-.32,0-3.87.8-4.67.43,6.15-3.78,4.77-8.58,14.14-12.87-2.46-1.83-5-3.29-3.16-6.77,2.56,3.1,7.45,2.07,10.09.59-2.61-.52-6-2.83-6.76-5.38,1-.15,2.25.92,3,1.41.35-.94.5-2.07,1.63-2.27-1.52,3.26,1.49,5,4.36,5,.45,0,2.31-.18,2.31-.18-.3-.61-1.5-2.28-.63-2.95a28.1,28.1,0,0,0,2.3,1.77c5.59,4.32-2.65,8.33-6,10.15-5.29,2.86-3.87,6.26-1.66,7.13,0,.38-.25.55-.62.67-1.54.52-3-.59-4.23-1.29.07,2.13-.07,4.14,2.29,5.36l-1.63.59c1.4,1,1.83,1.62,3.51,1.84a7.64,7.64,0,0,1-2.59.46,6.16,6.16,0,0,0,.82,1.92c-3.44.42-4.82-1.55-5.89-1.48-2.27.17-2.13,4.45,3.47,4.45l-.58.95a6.11,6.11,0,0,0,2.07.74,11.12,11.12,0,0,0-1,1l.89.77c-2.29.41-2.93-2.07-4.41-.85-2.26,1.79,2.72,5.57,7.49,5a15.28,15.28,0,0,1-2,1.66c3.89,3.67,2,7.14,3.57,9.67A7,7,0,0,1,26.78,72" transform="translate(-6.67 -12)"/><path class="cls-4" d="M20.64,58.57c.81.85,1.79.93,3.64.82-2.07-.25-3.18-.75-3.9-2.07a21.36,21.36,0,0,1-.2-2.25,15.49,15.49,0,0,1,2.13-7.5,5.26,5.26,0,0,0,4.49,5c-2.8-1.22-4.43-4-3.54-6.64.58-.93,1.24-1.88,2-2.86.38-.47.73-.92,1-1.35-.37,1.36,1.26,2.75,2.36,3-.59-.58-1.87-2.47,1-5.63a14.66,14.66,0,0,0-2.42,1.48C32.59,34.75,37,34.59,39,31.67c-2.85,2-10.61,3.1-14.11,2.06,1.93,1.29,6.58,1.17,7.7.93-3.78,3.68-12,7.49-13.45,10.86a9.67,9.67,0,0,1,5.06-3.18,34.23,34.23,0,0,0-3.46,5.94c-2.19,4.77-5.17,4.84-5.32,8.78,1-3.05,3-3.83,4.45-5.83a19.76,19.76,0,0,0-.33,4.34,13.57,13.57,0,0,0,1,4.75c-.15,1.94,0,5.27,2.25,7.46a10.07,10.07,0,0,1-1.7-6.21c1.74,3.37,6.72,8,9.13,11.16C27.82,68.7,22,64,20.66,58.57" transform="translate(-6.67 -12)"/><path class="cls-4" d="M75.77,42.38a9.68,9.68,0,0,1,5,3.18c-1.43-3.38-9.7-7.18-13.46-10.85,1.14.23,5.78.36,7.7-.94-3.48,1-11.24-.13-14.18-2.14,2.07,2.92,6.43,3.11,11.79,8.87A13.37,13.37,0,0,0,70.24,39c3,3.16,1.68,5,1,5.63,1.09-.24,2.74-1.63,2.37-3,.35.42.71.87,1,1.34.74,1,1.39,1.94,2,2.87.89,2.66-.76,5.41-3.54,6.63a5.23,5.23,0,0,0,4.48-5A15.49,15.49,0,0,1,79.72,55a19,19,0,0,1-.21,2.25c-.71,1.35-1.86,1.85-3.9,2.07,1.87.11,2.84,0,3.65-.82C78,64,72.08,68.66,69.68,72.68c2.41-3.1,7.39-7.78,9.14-11.15a10,10,0,0,1-1.71,6.21c2.24-2.2,2.4-5.52,2.26-7.47a13.78,13.78,0,0,0,1-4.74A19.12,19.12,0,0,0,80,51.19c1.41,2,3.45,2.77,4.45,5.83-.2-3.94-3.1-4-5.34-8.78a33,33,0,0,0-3.46-5.94" transform="translate(-6.67 -12)"/><path class="cls-4" d="M85.33,51.33c1.73.26,3.1.26,3.74-1.46-6.37-3-6.31-9.39-13.62-12.72,4-3,2.94-5.78,1-8.6-2,3.5-5.38,4-7.47,2.83,2.94-1,4.06-4.71,5.84-5.76-1-1.2-2.51-1.2-4.15-.17-.9-2.41-3.85-1.61-4.3-1.61a3.69,3.69,0,0,1,1.37,2.88c-.31,2.42-4.23,2.07-4.23,2.07.79-1.64.44-2.61-1.33-3.45-.54,1.3-4.76,3.05-5,5.62-.42,4,4.33,6.45,8.5,8.7,4.59,2.49,2.91,5.18,1.24,5.27-.92,2.86,2.61,3.36,4.63,2.2,0,.39-.27,2.67-3.35,2.86a2.07,2.07,0,0,0,1.58,1.49,7.57,7.57,0,0,1-3.29.52c.11,1.24,1.45,2.23,3.1,2.4A2.75,2.75,0,0,1,68,55.57c1.82,1.81,6.71.62,7.71-.43.45-.47,1,.2.46.92s-3,1.58-5,1a1.71,1.71,0,0,0,.54,1.85,11.41,11.41,0,0,0-2.45.47c.19.83,1.14,1.32,1.47,1.65a3.45,3.45,0,0,0-.87,1.47c.89.44,3.33,1.11,4.64-.38.52-.59,1.1-.22.56.54-1.92,2.65-6.51,2.69-8.14,1.86,0,2.07.85,2.49,1.94,3.35-3.33,3.83-1.13,7.25-3.48,10.58,4.43,0,7.24-2.41,8-4.68a1.87,1.87,0,0,0,1.69,1.74,4.77,4.77,0,0,1,.6-2.56c.9.73,2.54.89,4.67,1-2.42-4.14,4.44-8.33,1.72-13.94-.4-.84.78-1.38.89-.52.64,4.81,3.46,5.9,5.85,4.4-.72-.79-1-.77-1.47-1.48,1.6.42,2.42-.74,2.83-2.2-4.34-1.53-2-5.26-4.76-8.83m.36,9.55a8.45,8.45,0,0,0,.93,2.48c-3.17-.21-1.7-6.87-4.87-5.27a1.75,1.75,0,0,0-.76,2.34c2.07,4.29-2.65,8.06-2.38,11.82-1.17,0-2.38,0-3.11-1.6a20.54,20.54,0,0,0-1.34,2.94l-1-1.61a7.05,7.05,0,0,1-6.41,5.35c1.59-2.53-.32-6,3.57-9.67a15.28,15.28,0,0,1-2-1.66c4.78.56,9.76-3.22,7.49-5-1.48-1.17-2.13,1.26-4.41.85l.89-.77c-.31-.31-.67-.71-1-1a6.11,6.11,0,0,0,2.07-.74l-.58-.95c5.59,0,5.73-4.28,3.47-4.45-1-.08-2.45,1.89-5.89,1.48a6.43,6.43,0,0,0,.83-1.92,7.66,7.66,0,0,1-2.6-.46c1.69-.22,2.07-.77,3.51-1.84l-1.63-.6c2.36-1.18,2.21-3.23,2.28-5.36-1.23.71-2.69,1.81-4.22,1.29-.38-.12-.61-.29-.61-.67,2.21-.87,3.62-4.27-1.67-7.13-3.37-1.82-11.62-5.83-6-10.15.76-.59,1.59-1.12,2.29-1.77.88.67-.32,2.34-.62,2.95,0,0,1.87.18,2.3.18,2.88,0,5.9-1.71,4.37-5,1.15.23,1.28,1.33,1.62,2.27.74-.49,2-1.56,3-1.41-.79,2.56-4.14,4.86-6.77,5.38,2.64,1.43,7.53,2.5,10.09-.59,1.81,3.48-.71,4.94-3.17,6.77,9.38,4.28,8,9.08,14.14,12.87-.79.37-4.35-.37-4.67-.43a19.39,19.39,0,0,1,2.36,3.32,15.84,15.84,0,0,1,.91,3.6,5.2,5.2,0,0,0,2.67,4c-.73,1.32-2.33.29-3,.12" transform="translate(-6.67 -12)"/><path class="cls-4" d="M41,71.37l1.33-1.14-.21-.4c-.14-.29-.07-.31.09-.43l.7-.52a.56.56,0,0,1,.54-.08l2.07.5H43.36a.86.86,0,0,0-.86.62l-.16.31-.58,1.18A1.33,1.33,0,0,0,42,73l.4.49-.8,1.67h.69L42.84,74a3.81,3.81,0,0,0,1-1.61c-.23-.19-.41-.34-.28-.61l.26-.54c.09-.19.12-.26.36-.21l2.23.47a.77.77,0,0,0,1-.24c.3-.47.34-.42,1-.35L49.6,71a6,6,0,0,0,3.7-.73,13.76,13.76,0,0,0,.83,1.23c.07.13,0,.33-.15.57l-1.23,3h2l1.11-2.79a1.79,1.79,0,0,1,.37-.58l-.63,3.37h1.9L58,71.79c.11-.73,0-1-.31-1.28-.8-.67-.78-2.07-1-2.94a.8.8,0,0,1,.48-.09c.41,0,.72,1.1,1.22,1.78,1,1.38,2.31,2.89,3.84.75a5.3,5.3,0,0,0-.5-.67l-.42-.49c-.25-.28-1.43-1.63-1.93-2.07a2.85,2.85,0,0,0-3.51-.42c-1.56-.82-3.19,0-3.58,0l-2.67-.16a.55.55,0,0,1-.43-.26l.5-.17C49.16,63.84,48,62.22,46,61.94c0,0-.12-.61-.43-.72l-.61.71a2.38,2.38,0,0,0-.52.15l-2.61-1,2,2a18.43,18.43,0,0,1-1.36,1.72.52.52,0,0,0,0,.73h0l.39.5c.19.26.41.25.72.08l.43-.22c.18-.16.81.15,1-.1a7.36,7.36,0,0,0-.17,1.55l-1.76-.2a.9.9,0,0,0-.79.18l-1.5,1.15a1.3,1.3,0,0,0-.34,1.66Zm14.49.33-1.19,2.93h-.74l1.19-2.84c.12-.36-.11-.53-.4-.94a7.65,7.65,0,0,0,1.29.62c0,.08-.1.15-.14.23M44.05,65.35l-.34.17c-.24.14-.35.2-.56-.06L43,65.28a.39.39,0,0,1,.06-.48l1.45-1.7L43.17,62l1.71.64.63-.79c.18.15.12.61.12.61A3.48,3.48,0,0,1,48.42,66a1.65,1.65,0,0,0,1,.7l3,.18c.5,0,1.72-.94,3.3,0A3.18,3.18,0,0,1,57,66.35a3.85,3.85,0,0,1,3.17,1.84c.56.71,1.33,1.79,1.33,1.79-.33.4-.66.52-.92.43a1.39,1.39,0,0,1-.68-1,3.23,3.23,0,0,0-1-1.34,5.9,5.9,0,0,1,.46,1.55C58.16,68.43,58,67,57.13,66.84a1.18,1.18,0,0,0-1.17.52c.41,1,.38,2.07.81,2.78.32.55.38.6.53.72.34.25.14.69.09,1l-.45,2.75h-.73L56.7,72c.14-.82-2.16-.82-3.35-2.39-1,1.18-3.83.88-5.05.7a1,1,0,0,0-1.24.45c-.15.27-.42.18-.59.15l-2.22-.47a.54.54,0,0,0-.71.27l0,.07-.44.92a.42.42,0,0,0,.08.55l.21.23a1.87,1.87,0,0,1-.53.77l-.49-.55a1,1,0,0,1-.06-1l.72-1.5a.57.57,0,0,1,.54-.35h2.75l-.83-1.38c-.63-1,.41-2.87.26-3.74-.09,1.16-1.49.64-1.71.79m-2.95,3.37,1.3-1a.81.81,0,0,1,.65-.26l1.85.24a2.84,2.84,0,0,0,.39.87l-2-.42a.68.68,0,0,0-.62.17l-.93.7a.46.46,0,0,0-.08.6l.14.32-.65.49L40.9,70c-.25-.5-.27-1,.15-1.28" transform="translate(-6.67 -12)"/><path class="cls-4" d="M46.73,33.46a13.33,13.33,0,0,0,2,1v-.84l-2.79-1s0,.34.81.89" transform="translate(-6.67 -12)"/><path class="cls-4" d="M48.71,32.45v-.84L45.6,30.48a7.12,7.12,0,0,0,1.18.95,13.33,13.33,0,0,0,2,1" transform="translate(-6.67 -12)"/><path class="cls-4" d="M48.71,30.54V29.7l-3.46-1.28s.67.55,1.48,1.1a13.33,13.33,0,0,0,2,1" transform="translate(-6.67 -12)"/><path class="cls-4" d="M58.41,42H62a1.62,1.62,0,0,0-1.73-1,2,2,0,0,0-1.81,1" transform="translate(-6.67 -12)"/><path class="cls-4" d="M54.72,28.42,51.26,29.7v.83a13.28,13.28,0,0,0,2-1c.81-.55,1.47-1.1,1.47-1.1" transform="translate(-6.67 -12)"/><path class="cls-4" d="M54.05,32.57l-2.79,1v.84a13.33,13.33,0,0,0,2-1c.81-.55.81-.89.81-.89" transform="translate(-6.67 -12)"/><path class="cls-4" d="M54.43,30.48l-3.11,1.13v.84a13.33,13.33,0,0,0,2-1,7.12,7.12,0,0,0,1.18-.95" transform="translate(-6.67 -12)"/><path class="cls-4" d="M39.74,41A1.62,1.62,0,0,0,38,42h3.54a2,2,0,0,0-1.82-1" transform="translate(-6.67 -12)"/><path class="cls-4" d="M57,26.17c0-2-3.35-3.77-7-3.77s-7,1.78-7,3.77l.07.48,1.47,8.45-6.91,4.06A4.1,4.1,0,0,0,35.75,42H37A2.83,2.83,0,0,1,40,39.55c1.61.08,2.56,1,3.51,2.46l.24.37.35.55H33.81a11,11,0,0,1,1.47,4.86V69.06c0,5.48,4.22,8.1,8.77,8.1,3.52,0,4-.16,5.94,1.78,1.93-2,2.41-1.78,5.94-1.78,4.55,0,8.76-2.61,8.76-8.1V47.77a11.1,11.1,0,0,1,1.47-4.86H55.92l.35-.55.25-.37c.94-1.4,1.89-2.38,3.51-2.46A2.83,2.83,0,0,1,63,42h1.26a4.16,4.16,0,0,0-1.79-2.85l-7-4.06,1.47-8.45Zm-12.63,1,5.17,1.77V37l-3.82-2Zm1.28,17.25a5.15,5.15,0,0,0,3.11,1.9,2.61,2.61,0,0,0,.9,1.46,2.61,2.61,0,0,0,1.93,3.16h0A2.08,2.08,0,0,0,53,52.48l-1,1.26a1.65,1.65,0,0,1-1.41.58l-4.85-.55c.2-.54-.36-1.16-1.89-.89l1.91-5.34-1.2-2.42L42.34,47l-.16,5.6-1-.47c-1.23-.53-1.59,1.7-.42,1.71h.47a.51.51,0,0,0,.21.56.39.39,0,0,0-.12.53.34.34,0,0,0,.12.12.46.46,0,0,0-.18.62.47.47,0,0,0,.09.12,1,1,0,0,0,.34,1.42,1,1,0,0,0,.23.11c.69.18,1.13-.57,1.27-1l7.56,2.34A2.57,2.57,0,0,0,53.52,58l2-1.73a2.07,2.07,0,0,0,1,2.48,10.35,10.35,0,0,0-.08,1.47H36.77V47.79A9.85,9.85,0,0,0,36,44.4Zm8.13,4.71a2.54,2.54,0,0,0,.11,2.54l-.32.32c-1.42-.18-2-2.29-2-2.29a5.42,5.42,0,0,0,0,.57,2,2,0,0,1-1.3-2.07,3.16,3.16,0,0,0,1,.36l.1-.62a2.14,2.14,0,0,1-1.79-1.52H50a5.64,5.64,0,0,0,1.63-.24,2.71,2.71,0,0,0,1.87,1A3,3,0,0,0,53.79,49m2.07,5.59a1.9,1.9,0,0,0-.33.65l-.79.72a3.83,3.83,0,0,0-1.33-3.1l.84-.83.17.17a1.94,1.94,0,0,0,1.4,2.35h0m-3.79-.26.65-.65A3.56,3.56,0,0,1,54,56.79l-.71.65a2.19,2.19,0,0,1-.46.34,3.84,3.84,0,0,0-.74-3.45m-1.4.53h0a1.36,1.36,0,0,0,.72-.1,3.56,3.56,0,0,1,.29,3.32,3.63,3.63,0,0,1-1-.14l-.25-.07a4.2,4.2,0,0,0,.2-3M49,54.65l.92.11a4.55,4.55,0,0,1-.44,2.83l-1-.31A4.49,4.49,0,0,0,49,54.65m-1.93-.22,1.11.13a4.44,4.44,0,0,1-.52,2.53l-1.13-.33a3.63,3.63,0,0,0,.54-2.33m-4.5-.3a.5.5,0,0,1-.72-.53,1.76,1.76,0,0,1,1.76.06c.26.18.49.67.86,1A7.62,7.62,0,0,1,44.17,56a1,1,0,0,1-1-1.08,1,1,0,0,1,.28-.65.68.68,0,0,0-.87-.19m-.72,2.07a2.37,2.37,0,0,0,.7.15.4.4,0,0,1-.44.37h0a.38.38,0,0,1-.24-.47s0,0,0-.05m-1-3a.3.3,0,0,1-.13-.39.29.29,0,0,1,.28-.16c.31,0,.73.36,1.13.54a3.93,3.93,0,0,1-1.28,0m1,2.16c.22.22.9.14.9.14v.13c-.29.39-1.11.22-.92-.27m.91-.44c-.48.18-1-.08-.82-.39.23.21.85.11.85.11Zm.7-5.59-.92,3.35.31-5.41,1.43-1.22L45,47.64l-1.77,5.24.49-3.54c0-.25-.16-.27-.2,0m.06,4a6.5,6.5,0,0,1,1.32.07c.22.09.07.44-.21.4a6,6,0,0,1-1.11-.47m1.61.82,1.12.14a3.74,3.74,0,0,1-.48,2.22l-1-.31a6.67,6.67,0,0,0,.45-2.07m18,14.88a6.14,6.14,0,0,1-3.19,5.65l.71-1.45H60.1l-.91,1.87A9.06,9.06,0,0,1,56,75.7c-3.63,0-4.59.14-5.94,1.49-1.34-1.34-2.31-1.49-5.94-1.49a9.22,9.22,0,0,1-3.24-.57h0l.92-1.87H41.1l-.81,1.64-.56-.29.67-1.34h-.69l-.48,1a6.21,6.21,0,0,1-2.48-5.17V60.92H63.21ZM64,44.4a9.41,9.41,0,0,0-.73,3.39V60.2H61.82a8.17,8.17,0,0,1-1.21-2.75A3.45,3.45,0,0,0,61,60.2H59.18a11,11,0,0,1-.86-2.82c-.56.63-.21,2.35.14,2.82H57.23a6.36,6.36,0,0,1,.18-1.84c-.65-.12-1.34-.45-1.34-1.18a1,1,0,0,0,.92.29l.52-.41c-1.74,0-1.82-1.85-.44-2.75-1.39,0-2.41-.78-1.92-2.25a2.07,2.07,0,0,1-.62-2.86l0,0a2.48,2.48,0,0,1-.28-2.45A2.67,2.67,0,0,1,52.36,46h-.11a4.9,4.9,0,0,0,2.07-1.59Zm-5.27-6c-1.43.25-2.67,2-3.67,3.59L55,42.2h-1v.18c-.11,1.23-1.27,2.88-3.83,2.88a4.19,4.19,0,0,1-2.68-.86,3.11,3.11,0,0,1-1-1.47,2.57,2.57,0,0,1-.12-.55V42.2h-1L45,42c-1-1.58-2.25-3.33-3.67-3.59l3.9-2.27L50,38.75l4.79-2.61ZM54.26,35l-3.83,2V28.9l5.18-1.77ZM50,28l-5.69-2.25c.48-1.13,2.71-2.07,5.68-2.07s5.17,1,5.67,2.07Z" transform="translate(-6.67 -12)"/><path class="cls-4" d="M62.61,52.41v-.62c-1.91,0-2.34-2.3-2.34-2.3a2.28,2.28,0,0,0,1.56,2.84,2.22,2.22,0,0,0,.77.08" transform="translate(-6.67 -12)"/><path class="cls-4" d="M60.2,56.23,60,55.64c-1.63.41-2.48-2.16-2.48-2.16A2.2,2.2,0,0,0,59,56.21a2.18,2.18,0,0,0,1.16,0" transform="translate(-6.67 -12)"/><path class="cls-4" d="M61.38,53.84c-1.94.31-2.74-2-2.74-2a2.21,2.21,0,0,0,1.73,2.6l.14,0a1.72,1.72,0,0,0,1.3,2,1.68,1.68,0,0,0,1.2-.18l-.19-.55a1.27,1.27,0,0,1-1.44-2" transform="translate(-6.67 -12)"/><path class="cls-4" d="M60.17,47.37v-.62c-2.56-.53-2.36-2.3-2.36-2.3a2.31,2.31,0,0,0,1.59,2.84,2.11,2.11,0,0,0,.75.08" transform="translate(-6.67 -12)"/><polygon class="cls-4" points="37.21 61.26 36.29 63.14 36.99 63.14 37.91 61.26 37.21 61.26"/><polygon class="cls-4" points="38.6 61.26 37.69 63.14 38.38 63.14 39.29 61.26 38.6 61.26"/><polygon class="cls-4" points="44.17 61.26 43.25 63.14 43.94 63.14 44.86 61.26 44.17 61.26"/><polygon class="cls-4" points="45.56 61.26 44.64 63.14 45.34 63.14 46.25 61.26 45.56 61.26"/><polygon class="cls-4" points="42.78 61.26 41.86 63.14 42.55 63.14 43.48 61.26 42.78 61.26"/><polygon class="cls-4" points="50.91 63.14 51.6 63.14 52.52 61.26 51.83 61.26 50.91 63.14"/><polygon class="cls-4" points="40 61.26 39.08 63.14 39.77 63.14 40.69 61.26 40 61.26"/><polygon class="cls-4" points="41.38 61.26 40.46 63.14 41.17 63.14 42.08 61.26 41.38 61.26"/><path class="cls-4" d="M44.91,63.24a.27.27,0,0,0-.32.23.28.28,0,0,0,.24.32.27.27,0,0,0,.31-.24v0a.27.27,0,0,0-.24-.28" transform="translate(-6.67 -12)"/><path class="cls-4" d="M50,21.14a10.48,10.48,0,0,1,6.4,1.95,12.83,12.83,0,0,1,1.65-4.25l-2.3.26-1.2-2.56-2.3,1.2L50,15.53l-2.24,2.22-2.32-1.21-1.2,2.56-2.3-.26a12.83,12.83,0,0,1,1.65,4.25A10.51,10.51,0,0,1,50,21.14m-5.36-1,1.08-2.3,2.07,1L50,16.67l2.25,2.21,2.07-1,1,2.32L56.7,20a9.86,9.86,0,0,0-.85,2,12,12,0,0,0-11.72,0,9.86,9.86,0,0,0-.85-2Z" transform="translate(-6.67 -12)"/><path class="cls-4" d="M52.34,16.56A.61.61,0,0,0,53,16a3.87,3.87,0,0,0-.45-1.23s-.74.79-.76,1.12a.61.61,0,0,0,.55.65" transform="translate(-6.67 -12)"/><path class="cls-4" d="M56.1,17.93a.6.6,0,0,0,.81-.25h0a3.56,3.56,0,0,0,.05-1.3s-1,.43-1.12.73a.6.6,0,0,0,.26.82" transform="translate(-6.67 -12)"/><path class="cls-4" d="M47.64,16.56a.61.61,0,0,0,.56-.65c0-.33-.76-1.12-.76-1.12A3.87,3.87,0,0,0,47,16a.6.6,0,0,0,.65.54" transform="translate(-6.67 -12)"/><path class="cls-4" d="M43.87,17.93a.61.61,0,0,0,.25-.82c-.15-.3-1.13-.73-1.13-.73a3.8,3.8,0,0,0,.07,1.3.59.59,0,0,0,.8.27h0" transform="translate(-6.67 -12)"/><path class="cls-4" d="M89,38.62a3.24,3.24,0,0,0,1.73-1.76c-2.07-.29-7.46-2.57-11.92-.72,1.67-1.58,3.17-1.79,3.31-4.06A1.62,1.62,0,0,0,84.42,32a1.55,1.55,0,0,0,.24-.33C84.2,30.31,83,31.4,82.88,31s1.46.16,1.82-1.6c-1.32-.46-1.71.62-2,.37s.84-.69.07-2.07c-1.37.8-.66,1.71-.95,1.8s-.07-1-1.58-.91c-.14,1.62,1.42,1.68,1.16,1.94s-.73-.94-1.86-.3a1.69,1.69,0,0,0,1.56,1.8,1.63,1.63,0,0,0,.62-.08c-.18,2.5-2.46,2.07-4.14,4.85,3.61,1.85,5.24,5.08,7.46,7.3a12.68,12.68,0,0,0,2-2.83,2.92,2.92,0,0,0,4.13,0h0c-.83-.85-.86-1.49-2.12-2.65m-3.5.45A4.09,4.09,0,0,1,85.16,43a16.39,16.39,0,0,0-4.66-6c-.32-.2.17-.57,1.09-.7,2.78-.53,6,.65,7.58,1a4,4,0,0,1-2.07.87,12,12,0,0,1,2.52,2.62c-1.08.27-1.7-.42-4.05-1.83" transform="translate(-6.67 -12)"/><path class="cls-4" d="M62.36,80.67v-3a27.72,27.72,0,0,1-9.26,2.31L52.93,81c.33,0,.74.08,1.29.12a31.53,31.53,0,0,1-8.57,0A8,8,0,0,0,47,81l-.18-1.09a27.87,27.87,0,0,1-9.19-2.31v3L34.48,82a38.6,38.6,0,0,0,8.28,3l-.38,1.27a28.18,28.18,0,0,0,15.4,0L57.41,85a39.34,39.34,0,0,0,8.28-3ZM36.13,82.05l2.15-.87V78.7a36.48,36.48,0,0,0,5.81,1.6l-1.22,4A35.6,35.6,0,0,1,36.13,82M50,86.64a29.65,29.65,0,0,1-6.83-.86l1.29-4.14a33.83,33.83,0,0,0,11.09,0l1.29,4.14a29.73,29.73,0,0,1-6.84.86m7.11-2.33-1.23-4a36.43,36.43,0,0,0,5.8-1.62v2.48l2.16.87a35.6,35.6,0,0,1-6.74,2.26" transform="translate(-6.67 -12)"/><path class="cls-4" d="M12.92,41.26a12.85,12.85,0,0,0,2,2.82c2.22-2.22,3.86-5.45,7.46-7.31-1.71-2.8-4-2.33-4.14-4.84a1.68,1.68,0,0,0,2.1-1.12,1.57,1.57,0,0,0,.07-.61c-1.15-.63-1.55.62-1.86.3s1.31-.31,1.16-1.93c-1.51,0-1.23,1-1.6.91s.43-1-.94-1.8c-.77,1.43.28,1.87.07,2.07s-.64-.83-2-.37c.35,1.75,2.07,1,1.82,1.6s-1.32-.72-1.78.63a1.6,1.6,0,0,0,2.17.66,1.4,1.4,0,0,0,.35-.25c.14,2.29,1.64,2.48,3.31,4.07-4.46-1.85-9.88.43-11.92.72A3.24,3.24,0,0,0,11,38.55c-1.32,1.23-1.32,1.87-2.13,2.72,0,0,1.69,1.85,4.14,0m-2.52-.36A12.33,12.33,0,0,1,13,38.29a4.17,4.17,0,0,1-2.07-.88c1.55-.42,4.81-1.59,7.59-1,.91.13,1.43.5,1.1.7a16.45,16.45,0,0,0-4.71,6,4.14,4.14,0,0,1-.44-3.94c-2.34,1.42-3,2.07-4,1.84" transform="translate(-6.67 -12)"/><path class="cls-4" d="M48,39.56V40.9a1.7,1.7,0,0,1,1.36-.44v1.93A3,3,0,0,1,49,43.76H51a3,3,0,0,1-.37-1.37V40.45a1.68,1.68,0,0,1,1.35.44V39.55H48Z" transform="translate(-6.67 -12)"/></svg>